<svg width="128" height="128" viewBox="0 0 128 128" fill="none" xmlns="http://www.w3.org/2000/svg">
  <defs>
    <linearGradient id="gosBg" x1="20" y1="16" x2="106" y2="112" gradientUnits="userSpaceOnUse">
      <stop stop-color="#1b2d27"/>
      <stop offset="1" stop-color="#101917"/>
    </linearGradient>
    <linearGradient id="gosStroke" x1="30" y1="18" x2="90" y2="98" gradientUnits="userSpaceOnUse">
      <stop stop-color="#9BE28A"/>
      <stop offset="1" stop-color="#63C764"/>
    </linearGradient>
    <filter id="glow" x="0" y="0" width="128" height="128" filterUnits="userSpaceOnUse" color-interpolation-filters="sRGB">
      <feGaussianBlur stdDeviation="8" result="blur"/>
      <feColorMatrix in="blur" type="matrix" values="0 0 0 0 0.388 0 0 0 0 0.78 0 0 0 0 0.392 0 0 0 0.25 0"/>
      <feBlend in="SourceGraphic" mode="normal"/>
    </filter>
  </defs>
  <rect x="8" y="8" width="112" height="112" rx="30" fill="url(#gosBg)"/>
  <rect x="8.5" y="8.5" width="111" height="111" rx="29.5" stroke="rgba(255,255,255,0.06)" stroke-opacity="0.12"/>
  <g filter="url(#glow)">
    <path d="M64 23L92 39.5V72.5L64 89L36 72.5V39.5L64 23Z" stroke="url(#gosStroke)" stroke-width="6" stroke-linejoin="round"/>
    <path d="M64 43V76" stroke="url(#gosStroke)" stroke-width="6" stroke-linecap="round"/>
    <path d="M64 56C64 48 70.5 42 80.5 42C80.5 52.5 75 59 64 60.5" stroke="url(#gosStroke)" stroke-width="6" stroke-linecap="round" stroke-linejoin="round"/>
    <path d="M64 53.5C64 46.5 58.5 41.5 49.5 41.5C49.5 51 54 57.5 64 59.5" stroke="url(#gosStroke)" stroke-width="6" stroke-linecap="round" stroke-linejoin="round"/>
    <path d="M45 82C53.5 77.5 58.5 75.5 64 75.5C69.5 75.5 74.5 77.5 83 82" stroke="url(#gosStroke)" stroke-width="6" stroke-linecap="round"/>
    <path d="M42 70.5C51 74 57 75.5 64 75.5" stroke="url(#gosStroke)" stroke-width="6" stroke-linecap="round"/>
    <path d="M86 70.5C77 74 71 75.5 64 75.5" stroke="url(#gosStroke)" stroke-width="6" stroke-linecap="round"/>
  </g>
</svg>
